<?xml version="1.0" encoding="UTF-8" standalone="no"?>
<!-- Created with Inkscape (http://www.inkscape.org/) -->

<svg
   xmlns:dc="http://purl.org/dc/elements/1.1/"
   xmlns:cc="http://creativecommons.org/ns#"
   xmlns:rdf="http://www.w3.org/1999/02/22-rdf-syntax-ns#"
   xmlns:svg="http://www.w3.org/2000/svg"
   xmlns="http://www.w3.org/2000/svg"
   xmlns:sodipodi="http://sodipodi.sourceforge.net/DTD/sodipodi-0.dtd"
   xmlns:inkscape="http://www.inkscape.org/namespaces/inkscape"
   width="71.815582mm"
   height="71.815536mm"
   viewBox="0 0 71.815583 71.815537"
   version="1.1"
   id="svg1054"
   inkscape:version="0.91 r13725"
   sodipodi:docname="color-palette.svg">
  <defs
     id="defs1048" />
  <sodipodi:namedview
     id="base"
     pagecolor="#ffffff"
     bordercolor="#666666"
     borderopacity="1.0"
     inkscape:pageopacity="0.0"
     inkscape:pageshadow="2"
     inkscape:zoom="2.52"
     inkscape:cx="69.692648"
     inkscape:cy="127.23225"
     inkscape:document-units="mm"
     inkscape:current-layer="layer1"
     showgrid="false"
     fit-margin-top="0"
     fit-margin-left="0"
     fit-margin-right="0"
     fit-margin-bottom="0"
     inkscape:window-width="816"
     inkscape:window-height="889"
     inkscape:window-x="0"
     inkscape:window-y="1"
     inkscape:window-maximized="0" />
  <metadata
     id="metadata1051">
    <rdf:RDF>
      <cc:Work
         rdf:about="">
        <dc:format>image/svg+xml</dc:format>
        <dc:type
           rdf:resource="http://purl.org/dc/dcmitype/StillImage" />
        <dc:title></dc:title>
      </cc:Work>
    </rdf:RDF>
  </metadata>
  <g
     inkscape:label="Layer 1"
     inkscape:groupmode="layer"
     id="layer1"
     transform="translate(-97.895805,-49.425556)">
    <rect
       style="fill:#8888a8;fill-opacity:1;stroke-width:0.09140156"
       id="rect4580"
       width="14.363104"
       height="14.363104"
       x="49.425526"
       y="97.895844"
       inkscape:transform-center-x="251.04204"
       inkscape:transform-center-y="8.430516"
       transform="matrix(0,1,1,0,0,0)" />
    <rect
       style="fill:#efefff;fill-opacity:1;stroke-width:0.09140156"
       id="rect4580-6"
       width="14.363104"
       height="14.363104"
       x="49.425526"
       y="112.25894"
       inkscape:transform-center-x="251.04204"
       inkscape:transform-center-y="8.4305118"
       transform="matrix(0,1,1,0,0,0)" />
    <rect
       style="fill:#ccccec;fill-opacity:1;stroke-width:0.09140156"
       id="rect4580-62"
       width="14.363104"
       height="14.363104"
       x="49.425526"
       y="126.62204"
       inkscape:transform-center-x="251.04204"
       inkscape:transform-center-y="8.4305133"
       transform="matrix(0,1,1,0,0,0)" />
    <rect
       style="fill:#444464;fill-opacity:1;stroke-width:0.09140156"
       id="rect4580-5"
       width="14.363104"
       height="14.363104"
       x="49.425526"
       y="140.98514"
       inkscape:transform-center-x="251.04204"
       inkscape:transform-center-y="8.430509"
       transform="matrix(0,1,1,0,0,0)" />
    <rect
       style="fill:#000020;fill-opacity:1;stroke-width:0.09140156"
       id="rect4580-5-0"
       width="14.363104"
       height="14.363104"
       x="49.425526"
       y="155.34827"
       inkscape:transform-center-x="251.04204"
       inkscape:transform-center-y="8.43052"
       transform="matrix(0,1,1,0,0,0)" />
    <rect
       style="fill:#57bfdc;fill-opacity:1;stroke-width:0.09140156"
       id="rect4580-3"
       width="14.363104"
       height="14.363104"
       x="63.788639"
       y="97.895844"
       inkscape:transform-center-x="251.04204"
       inkscape:transform-center-y="8.430516"
       transform="matrix(0,1,1,0,0,0)" />
    <rect
       style="fill:#b5e8f6;fill-opacity:1;stroke-width:0.09140156"
       id="rect4580-6-2"
       width="14.363104"
       height="14.363104"
       x="63.788639"
       y="112.25896"
       inkscape:transform-center-x="251.04204"
       inkscape:transform-center-y="8.4305176"
       transform="matrix(0,1,1,0,0,0)" />
    <rect
       style="fill:#80d3ea;fill-opacity:1;stroke-width:0.09140156"
       id="rect4580-62-8"
       width="14.363104"
       height="14.363104"
       x="63.788639"
       y="126.62204"
       inkscape:transform-center-x="251.04204"
       inkscape:transform-center-y="8.4305133"
       transform="matrix(0,1,1,0,0,0)" />
    <rect
       style="fill:#35a9ca;fill-opacity:1;stroke-width:0.09140156"
       id="rect4580-5-2"
       width="14.363104"
       height="14.363104"
       x="63.788639"
       y="140.98514"
       inkscape:transform-center-x="251.04204"
       inkscape:transform-center-y="8.430509"
       transform="matrix(0,1,1,0,0,0)" />
    <rect
       style="fill:#1591b4;fill-opacity:1;stroke-width:0.09140156"
       id="rect4580-5-0-8"
       width="14.363104"
       height="14.363104"
       x="63.788639"
       y="155.34827"
       inkscape:transform-center-x="251.04204"
       inkscape:transform-center-y="8.43052"
       transform="matrix(0,1,1,0,0,0)" />
    <rect
       style="fill:#667ee1;fill-opacity:1;stroke-width:0.09140156"
       id="rect4580-1"
       width="14.363104"
       height="14.363104"
       x="78.151764"
       y="97.895844"
       inkscape:transform-center-x="251.04203"
       inkscape:transform-center-y="8.430516"
       transform="matrix(0,1,1,0,0,0)" />
    <rect
       style="fill:#bcc8f8;fill-opacity:1;stroke-width:0.09140156"
       id="rect4580-6-27"
       width="14.363104"
       height="14.363104"
       x="78.151764"
       y="112.25894"
       inkscape:transform-center-x="251.04203"
       inkscape:transform-center-y="8.4305118"
       transform="matrix(0,1,1,0,0,0)" />
    <rect
       style="fill:#8c9fed;fill-opacity:1;stroke-width:0.09140156"
       id="rect4580-62-3"
       width="14.363104"
       height="14.363104"
       x="78.151764"
       y="126.62204"
       inkscape:transform-center-x="251.04203"
       inkscape:transform-center-y="8.4305133"
       transform="matrix(0,1,1,0,0,0)" />
    <rect
       style="fill:#4661d2;fill-opacity:1;stroke-width:0.09140156"
       id="rect4580-5-7"
       width="14.363104"
       height="14.363104"
       x="78.151764"
       y="140.98514"
       inkscape:transform-center-x="251.04203"
       inkscape:transform-center-y="8.430509"
       transform="matrix(0,1,1,0,0,0)" />
    <rect
       style="fill:#2644c0;fill-opacity:1;stroke-width:0.09140156"
       id="rect4580-5-0-7"
       width="14.363104"
       height="14.363104"
       x="78.151764"
       y="155.34827"
       inkscape:transform-center-x="251.04203"
       inkscape:transform-center-y="8.43052"
       transform="matrix(0,1,1,0,0,0)" />
    <rect
       inkscape:transform-center-y="8.430516"
       inkscape:transform-center-x="251.04204"
       y="97.895828"
       x="92.51487"
       height="14.363104"
       width="14.363104"
       id="rect1429"
       style="fill:#ffcf60;fill-opacity:1;stroke-width:0.09140156"
       transform="matrix(0,1,1,0,0,0)" />
    <rect
       inkscape:transform-center-y="8.4305176"
       inkscape:transform-center-x="251.04204"
       y="112.25894"
       x="92.51487"
       height="14.363104"
       width="14.363104"
       id="rect1431"
       style="fill:#ffeab9;fill-opacity:1;stroke-width:0.09140156"
       transform="matrix(0,1,1,0,0,0)" />
    <rect
       inkscape:transform-center-y="8.4305133"
       inkscape:transform-center-x="251.04204"
       y="126.62202"
       x="92.51487"
       height="14.363104"
       width="14.363104"
       id="rect1433"
       style="fill:#ffdb88;fill-opacity:1;stroke-width:0.09140156"
       transform="matrix(0,1,1,0,0,0)" />
    <rect
       inkscape:transform-center-y="8.430509"
       inkscape:transform-center-x="251.04204"
       y="140.98512"
       x="92.51487"
       height="14.363104"
       width="14.363104"
       id="rect1435"
       style="fill:#ffc53d;fill-opacity:1;stroke-width:0.09140156"
       transform="matrix(0,1,1,0,0,0)" />
    <rect
       inkscape:transform-center-y="8.43052"
       inkscape:transform-center-x="251.04204"
       y="155.34825"
       x="92.51487"
       height="14.363104"
       width="14.363104"
       id="rect1437"
       style="fill:#ffb916;fill-opacity:1;stroke-width:0.09140156"
       transform="matrix(0,1,1,0,0,0)" />
    <rect
       inkscape:transform-center-y="8.430516"
       inkscape:transform-center-x="251.04203"
       y="97.895828"
       x="106.87801"
       height="14.363104"
       width="14.363104"
       id="rect1439"
       style="fill:#ffb060;fill-opacity:1;stroke-width:0.09140156"
       transform="matrix(0,1,1,0,0,0)" />
    <rect
       inkscape:transform-center-y="8.4305118"
       inkscape:transform-center-x="251.04203"
       y="112.25893"
       x="106.87801"
       height="14.363104"
       width="14.363104"
       id="rect1441"
       style="fill:#ffdcb9;fill-opacity:1;stroke-width:0.09140156"
       transform="matrix(0,1,1,0,0,0)" />
    <rect
       inkscape:transform-center-y="8.4305133"
       inkscape:transform-center-x="251.04203"
       y="126.62202"
       x="106.87801"
       height="14.363104"
       width="14.363104"
       id="rect1443"
       style="fill:#ffc488;fill-opacity:1;stroke-width:0.09140156"
       transform="matrix(0,1,1,0,0,0)" />
    <rect
       inkscape:transform-center-y="8.430509"
       inkscape:transform-center-x="251.04203"
       y="140.98512"
       x="106.87801"
       height="14.363104"
       width="14.363104"
       id="rect1445"
       style="fill:#ff9f3d;fill-opacity:1;stroke-width:0.09140156"
       transform="matrix(0,1,1,0,0,0)" />
    <rect
       inkscape:transform-center-y="8.43052"
       inkscape:transform-center-x="251.04203"
       y="155.34825"
       x="106.87801"
       height="14.363104"
       width="14.363104"
       id="rect1447"
       style="fill:#ff8c16;fill-opacity:1;stroke-width:0.09140156"
       transform="matrix(0,1,1,0,0,0)" />
  </g>
</svg>
