<?xml version="1.0" encoding="UTF-8" standalone="no"?>
<!-- Created with Inkscape (http://www.inkscape.org/) -->

<svg
   xmlns:dc="http://purl.org/dc/elements/1.1/"
   xmlns:cc="http://creativecommons.org/ns#"
   xmlns:rdf="http://www.w3.org/1999/02/22-rdf-syntax-ns#"
   xmlns:svg="http://www.w3.org/2000/svg"
   xmlns="http://www.w3.org/2000/svg"
   xmlns:sodipodi="http://sodipodi.sourceforge.net/DTD/sodipodi-0.dtd"
   xmlns:inkscape="http://www.inkscape.org/namespaces/inkscape"
   id="svg2"
   width="96"
   height="32"
   version="1.1"
   viewBox="0 0 96 32"
   inkscape:version="0.91 r13725"
   sodipodi:docname="edwina-star.svg">
  <sodipodi:namedview
     pagecolor="#ffffff"
     bordercolor="#666666"
     borderopacity="1"
     objecttolerance="10"
     gridtolerance="10"
     guidetolerance="10"
     inkscape:pageopacity="0"
     inkscape:pageshadow="2"
     inkscape:window-width="1280"
     inkscape:window-height="802"
     id="namedview28"
     showgrid="false"
     inkscape:zoom="1.2908998"
     inkscape:cx="143.31259"
     inkscape:cy="-77.999213"
     inkscape:window-x="0"
     inkscape:window-y="0"
     inkscape:window-maximized="0"
     inkscape:current-layer="svg2" />
  <defs
     id="defs4">
    <filter
       id="filter4284"
       style="color-interpolation-filters:sRGB"
       height="1.168"
       width="1.168"
       y="-0.084"
       x="-0.084">
      <feGaussianBlur
         id="feGaussianBlur4286"
         stdDeviation="5.2351792" />
    </filter>
    <filter
       id="filter4292"
       style="color-interpolation-filters:sRGB"
       height="1.12"
       width="1.12"
       y="-0.06"
       x="-0.06">
      <feGaussianBlur
         id="feGaussianBlur4294"
         stdDeviation="1.9999999" />
    </filter>
  </defs>
  <metadata
     id="metadata7">
    <rdf:RDF>
      <cc:Work
         rdf:about="">
        <dc:format>image/svg+xml</dc:format>
        <dc:type
           rdf:resource="http://purl.org/dc/dcmitype/StillImage" />
        <dc:title />
      </cc:Work>
    </rdf:RDF>
  </metadata>
  <g
     id="layer1"
     transform="matrix(0.14545382,0,0,0.14545382,-41.03433,-65.929659)"
     style="fill-rule:evenodd">
    <path
       id="rect4194"
       style="color:#000000;isolation:auto;mix-blend-mode:normal;solid-color:#000000;fill:#a1f55c;stroke:#75e914;stroke-width:3.91709995;color-rendering:auto;image-rendering:auto;shape-rendering:auto"
       d="m 392.12,453.58 c 13.903,86.348 23.117,95.975 109.69,109.69 -84.694,10.032 -95.27,19.664 -109.69,109.69 -7.8457,-88.871 -18.239,-94.627 -109.69,-109.69 91.026,-11.536 98.22,-22.516 109.69,-109.69 z"
       inkscape:connector-curvature="0" />
    <path
       id="path4254"
       style="color:#000000;isolation:auto;mix-blend-mode:normal;solid-color:#000000;fill:#dafa3c;filter:url(#filter4284);color-rendering:auto;image-rendering:auto;shape-rendering:auto"
       d="m 309.92,467.62 c 9.4795,58.873 15.762,65.437 74.788,74.788 -57.747,6.8404 -64.958,13.408 -74.788,74.788 -5.3494,-60.594 -12.436,-64.519 -74.788,-74.788 62.064,-7.8653 66.969,-15.352 74.788,-74.788 z"
       transform="matrix(0.97926,0,0,0.97928,88.618,32.107)"
       inkscape:connector-curvature="0" />
    <path
       id="path4256"
       style="color:#000000;isolation:auto;mix-blend-mode:normal;solid-color:#000000;fill:#d7fdb7;filter:url(#filter4292);color-rendering:auto;image-rendering:auto;shape-rendering:auto"
       d="m 394.44,520.95 c 5.0701,31.488 8.4301,34.999 40,40 -30.886,3.6585 -34.742,7.1709 -40,40 -2.8611,-32.408 -6.6512,-34.507 -40,-40 33.194,-4.2067 35.818,-8.211 40,-40 z"
       transform="matrix(0.97926,0,0,0.97928,5.8509,13.953)"
       inkscape:connector-curvature="0" />
    <path
       id="path4353"
       style="color:#000000;isolation:auto;mix-blend-mode:normal;solid-color:#000000;fill:#75e914;color-rendering:auto;image-rendering:auto;shape-rendering:auto"
       d="m 442.09,478.95 c 3.38,20.992 5.62,23.332 26.667,26.667 -20.59,2.439 -23.161,4.7806 -26.667,26.667 -1.9074,-21.605 -4.4341,-23.005 -26.667,-26.667 22.13,-2.8045 23.879,-5.474 26.667,-26.667 z"
       inkscape:connector-curvature="0" />
    <path
       id="path4452"
       style="color:#000000;isolation:auto;mix-blend-mode:normal;solid-color:#000000;fill:#75e914;color-rendering:auto;image-rendering:auto;shape-rendering:auto"
       d="m 330.77,588.92 c 2.7991,17.384 4.6541,19.322 22.083,22.083 -17.051,2.0198 -19.181,3.9589 -22.083,22.083 -1.5796,-17.892 -3.672,-19.051 -22.083,-22.083 18.326,-2.3224 19.775,-4.5331 22.083,-22.083 z"
       inkscape:connector-curvature="0" />
    <path
       id="path4395"
       style="color:#000000;isolation:auto;mix-blend-mode:normal;solid-color:#000000;fill:#a1f55c;stroke:#75e914;stroke-width:3.91709995;color-rendering:auto;image-rendering:auto;shape-rendering:auto"
       d="m 832.12,453.58 c 13.903,86.348 23.117,95.975 109.69,109.69 -84.694,10.032 -95.27,19.664 -109.69,109.69 -7.8457,-88.871 -18.239,-94.627 -109.69,-109.69 91.026,-11.536 98.22,-22.516 109.69,-109.69 z"
       inkscape:connector-curvature="0" />
    <path
       id="path4397"
       style="color:#000000;isolation:auto;mix-blend-mode:normal;solid-color:#000000;fill:#dafa3c;filter:url(#filter4284);color-rendering:auto;image-rendering:auto;shape-rendering:auto"
       d="m 309.92,467.62 c 9.4795,58.873 15.762,65.437 74.788,74.788 -57.747,6.8404 -64.958,13.408 -74.788,74.788 -5.3494,-60.594 -12.436,-64.519 -74.788,-74.788 62.064,-7.8653 66.969,-15.352 74.788,-74.788 z"
       transform="matrix(0.97926,0,0,0.97928,528.62,32.107)"
       inkscape:connector-curvature="0" />
    <path
       id="path4399"
       style="color:#000000;isolation:auto;mix-blend-mode:normal;solid-color:#000000;fill:#d7fdb7;filter:url(#filter4292);color-rendering:auto;image-rendering:auto;shape-rendering:auto"
       d="m 394.44,520.95 c 5.0701,31.488 8.4301,34.999 40,40 -30.886,3.6585 -34.742,7.1709 -40,40 -2.8611,-32.408 -6.6512,-34.507 -40,-40 33.194,-4.2067 35.818,-8.211 40,-40 z"
       transform="matrix(0.97926,0,0,0.97928,445.85,13.953)"
       inkscape:connector-curvature="0" />
    <path
       id="path4403"
       style="color:#000000;isolation:auto;mix-blend-mode:normal;solid-color:#000000;fill:#75e914;color-rendering:auto;image-rendering:auto;shape-rendering:auto"
       d="m 764.52,474.75 c 2.8519,18.696 4.7419,20.78 22.5,23.75 -17.373,2.1722 -19.542,4.2577 -22.5,23.75 -1.6094,-19.242 -3.7413,-20.489 -22.5,-23.75 18.672,-2.4977 20.148,-4.8752 22.5,-23.75 z"
       inkscape:connector-curvature="0" />
    <path
       id="path4367"
       style="color:#000000;isolation:auto;mix-blend-mode:normal;solid-color:#000000;fill:#a1f55c;stroke:#75e914;stroke-width:3.91709995;color-rendering:auto;image-rendering:auto;shape-rendering:auto"
       d="m 612.12,453.58 c 13.903,86.348 23.117,95.975 109.69,109.69 -84.694,10.032 -95.27,19.664 -109.69,109.69 -7.8457,-88.871 -18.239,-94.627 -109.69,-109.69 91.026,-11.536 98.22,-22.516 109.69,-109.69 z"
       inkscape:connector-curvature="0" />
    <path
       id="path4369"
       style="color:#000000;isolation:auto;mix-blend-mode:normal;solid-color:#000000;fill:#dafa3c;filter:url(#filter4284);color-rendering:auto;image-rendering:auto;shape-rendering:auto"
       d="m 309.92,467.62 c 9.4795,58.873 15.762,65.437 74.788,74.788 -57.747,6.8404 -64.958,13.408 -74.788,74.788 -5.3494,-60.594 -12.436,-64.519 -74.788,-74.788 62.064,-7.8653 66.969,-15.352 74.788,-74.788 z"
       transform="matrix(0.97926,0,0,0.97928,308.62,32.107)"
       inkscape:connector-curvature="0" />
    <path
       id="path4371"
       style="color:#000000;isolation:auto;mix-blend-mode:normal;solid-color:#000000;fill:#d7fdb7;filter:url(#filter4292);color-rendering:auto;image-rendering:auto;shape-rendering:auto"
       d="m 394.44,520.95 c 5.0701,31.488 8.4301,34.999 40,40 -30.886,3.6585 -34.742,7.1709 -40,40 -2.8611,-32.408 -6.6512,-34.507 -40,-40 33.194,-4.2067 35.818,-8.211 40,-40 z"
       transform="matrix(0.97926,0,0,0.97928,225.85,13.953)"
       inkscape:connector-curvature="0" />
    <g
       id="g22"
       style="fill:#75e914">
      <path
         id="path4375"
         style="color:#000000;isolation:auto;mix-blend-mode:normal;solid-color:#000000;color-rendering:auto;image-rendering:auto;shape-rendering:auto"
         d="m 564.52,497.25 c 1.5844,9.84 2.6344,10.937 12.5,12.5 -9.6518,1.1433 -10.857,2.2409 -12.5,12.5 -0.8941,-10.128 -2.0785,-10.784 -12.5,-12.5 10.373,-1.3146 11.193,-2.5659 12.5,-12.5 z"
         inkscape:connector-curvature="0" />
      <path
         id="path4238"
         style="color:#000000;isolation:auto;mix-blend-mode:normal;solid-color:#000000;color-rendering:auto;image-rendering:auto;shape-rendering:auto"
         d="m 444.59,588.95 c 3.38,20.992 5.62,23.332 26.667,26.667 -20.59,2.439 -23.161,4.7806 -26.667,26.667 -1.9074,-21.605 -4.4341,-23.005 -26.667,-26.667 22.13,-2.8045 23.879,-5.474 26.667,-26.667 z"
         inkscape:connector-curvature="0" />
      <path
         id="path4240"
         style="color:#000000;isolation:auto;mix-blend-mode:normal;solid-color:#000000;color-rendering:auto;image-rendering:auto;shape-rendering:auto"
         d="m 683.76,578.95 c 5.4926,34.112 9.1326,37.915 43.333,43.333 -33.459,3.9634 -37.637,7.7685 -43.333,43.333 -3.0996,-35.109 -7.2055,-37.383 -43.333,-43.333 35.961,-4.5572 38.803,-8.8952 43.333,-43.333 z"
         inkscape:connector-curvature="0" />
      <path
         id="path4242"
         style="color:#000000;isolation:auto;mix-blend-mode:normal;solid-color:#000000;color-rendering:auto;image-rendering:auto;shape-rendering:auto"
         d="m 689.18,455.62 c 4.3835,27.224 7.2885,30.259 34.583,34.583 -26.703,3.1631 -30.037,6.1998 -34.583,34.583 -2.4737,-28.019 -5.7505,-29.835 -34.583,-34.583 28.699,-3.637 30.968,-7.099 34.583,-34.583 z"
         inkscape:connector-curvature="0" />
    </g>
  </g>
</svg>
