<?xml version="1.0" encoding="UTF-8" standalone="no"?>
<!-- Created with Inkscape (http://www.inkscape.org/) -->

<svg
   xmlns:dc="http://purl.org/dc/elements/1.1/"
   xmlns:cc="http://creativecommons.org/ns#"
   xmlns:rdf="http://www.w3.org/1999/02/22-rdf-syntax-ns#"
   xmlns:svg="http://www.w3.org/2000/svg"
   xmlns="http://www.w3.org/2000/svg"
   xmlns:xlink="http://www.w3.org/1999/xlink"
   xmlns:sodipodi="http://sodipodi.sourceforge.net/DTD/sodipodi-0.dtd"
   xmlns:inkscape="http://www.inkscape.org/namespaces/inkscape"
   width="300"
   height="300"
   viewBox="0 0 300 300"
   id="svg2"
   version="1.1"
   inkscape:version="0.91 r13725"
   sodipodi:docname="planet-earth.svg"
   enable-background="new">
  <defs
     id="defs4">
    <linearGradient
       inkscape:collect="always"
       id="linearGradient4368">
      <stop
         style="stop-color:#ffffff;stop-opacity:1"
         offset="0"
         id="stop4370" />
      <stop
         style="stop-color:#000000;stop-opacity:1"
         offset="1"
         id="stop4372" />
    </linearGradient>
    <radialGradient
       inkscape:collect="always"
       xlink:href="#linearGradient4368"
       id="radialGradient4374"
       cx="18.277113"
       cy="-337.37469"
       fx="18.277113"
       fy="-337.37469"
       r="150"
       gradientUnits="userSpaceOnUse"
       gradientTransform="matrix(-0.03894165,1.5025861,-1.248979,-0.03236906,-354.76217,-0.85452977)" />
  </defs>
  <sodipodi:namedview
     id="base"
     pagecolor="#ffffff"
     bordercolor="#666666"
     borderopacity="1.0"
     inkscape:pageopacity="0.0"
     inkscape:pageshadow="2"
     inkscape:zoom="0.98692033"
     inkscape:cx="114.93945"
     inkscape:cy="310.53194"
     inkscape:document-units="px"
     inkscape:current-layer="layer2"
     showgrid="false"
     units="px"
     inkscape:showpageshadow="false"
     inkscape:window-width="1122"
     inkscape:window-height="996"
     inkscape:window-x="804"
     inkscape:window-y="0"
     inkscape:window-maximized="0" />
  <metadata
     id="metadata7">
    <rdf:RDF>
      <cc:Work
         rdf:about="">
        <dc:format>image/svg+xml</dc:format>
        <dc:type
           rdf:resource="http://purl.org/dc/dcmitype/StillImage" />
        <dc:title></dc:title>
      </cc:Work>
    </rdf:RDF>
  </metadata>
  <g
     inkscape:label="Blue earth"
     inkscape:groupmode="layer"
     id="layer1"
     transform="translate(0,-752.36216)"
     style="display:inline">
    <ellipse
       style="fill:#000000;fill-opacity:1;stroke:none"
       id="path4926"
       cx="-2883.7747"
       cy="603.36218"
       rx="150"
       ry="0"
       transform="scale(-1,1)" />
    <path
       inkscape:connector-curvature="0"
       id="path4893"
       d="m 300,902.3621 a 149.99999,149.99999 0 0 1 -149.99999,150 A 149.99999,149.99999 0 0 1 4.172535e-6,902.3621 149.99999,149.99999 0 0 1 150.00001,752.36212 149.99999,149.99999 0 0 1 300,902.3621 Z"
       style="fill:#35a9ca;fill-opacity:1;stroke:none" />
    <path
       inkscape:connector-curvature="0"
       style="fill:#ffc53d;fill-opacity:1;fill-rule:evenodd;stroke:none;stroke-width:1px;stroke-linecap:butt;stroke-linejoin:miter;stroke-opacity:1"
       d="m 244.13813,785.7398 c -4.65877,9.33609 -10.36036,18.06511 -19.78037,23.16066 -18.81211,13.96358 -37.20896,28.47958 -55.74812,42.79867 l -3.01043,26.12012 c 11.59148,8.54549 21.71288,19.64029 34.29036,26.12218 21.86649,0.76642 44.49926,6.26125 65.74459,-1.62853 11.54365,-2.53395 23.44397,-5.24718 33.9672,-10.75115 A 149.99999,149.99999 0 0 0 244.13813,785.7398 Z"
       id="path4857" />
    <path
       inkscape:connector-curvature="0"
       style="fill:#ffc53d;fill-opacity:1;fill-rule:evenodd;stroke:none;stroke-width:1px;stroke-linecap:butt;stroke-linejoin:miter;stroke-opacity:1"
       d="M 1.2100628,884.33749 A 149.99999,149.99999 0 0 0 3.6338248e-4,902.36178 149.99999,149.99999 0 0 0 150.00071,1052.3622 a 149.99999,149.99999 0 0 0 7.78118,-0.2764 c -10.38793,-14.0292 -21.77593,-27.2462 -35.08548,-38.5445 -6.92943,-10.2768 -5.57215,-23.41844 -8.76127,-34.926 -0.91837,-9.06635 -6.14197,-16.78828 -12.99839,-22.47827 C 87.659566,941.85332 75.902438,925.8282 60.79988,913.44253 40.936702,903.74201 21.140642,893.90086 1.2100628,884.33749 Z"
       id="path4865" />
    <path
       style="fill:#ff9f3d;fill-opacity:1;fill-rule:evenodd;stroke:none;stroke-width:1px;stroke-linecap:butt;stroke-linejoin:miter;stroke-opacity:1"
       d="m 245.82371,796.52416 c -10.77569,17.18504 -30.42522,25.24908 -45.04675,38.50752 -8.67352,6.70253 -17.32908,13.42847 -25.99373,20.14264 -0.75005,6.55874 -1.52612,13.12869 -2.25995,19.68046 10.44867,7.4941 18.7856,18.62776 31.25353,22.78034 22.21383,1.87213 45.47649,4.96036 66.76526,-3.14929 7.35472,-1.97882 15.78967,-3.25227 22.04314,-7.31515 -3.6794,-34.60923 -20.62517,-67.68082 -46.47237,-91.13548 l -0.28913,0.48896 z"
       id="path4912"
       inkscape:connector-curvature="0" />
    <path
       style="fill:#ff9f3d;fill-opacity:1;fill-rule:evenodd;stroke:none;stroke-width:1px;stroke-linecap:butt;stroke-linejoin:miter;stroke-opacity:1"
       d="m 6.5821455,899.58443 c -1.7750283,60.08222 38.4425715,119.02397 95.9679045,138.02237 13.45669,4.7355 27.83524,7.5078 42.12256,8.0342 -8.87661,-11.6362 -20.7149,-20.8053 -29.62378,-32.2664 -8.36085,-15.79617 -2.14834,-37.28574 -16.274568,-50.26084 C 80.518102,945.60717 67.56294,921.09741 42.698405,911.83937 30.800699,906.00547 18.910647,900.15666 6.98396,894.38209 c -0.1339386,1.73411 -0.267876,3.46823 -0.4018145,5.20234 z"
       id="path4920"
       inkscape:connector-curvature="0" />
  </g>
  <g
     inkscape:groupmode="layer"
     id="layer2"
     inkscape:label="Dark shadow"
     style="display:inline;opacity:0.25">
    <path
       style="fill:#000000;fill-opacity:1;fill-rule:evenodd;stroke:none;stroke-width:1px;stroke-linecap:butt;stroke-linejoin:miter;stroke-opacity:1"
       d="M 228.25977,22.25391 A 150,150 0 0 1 249,98 150,150 0 0 1 99.000005,248 150,150 0 0 1 20.740235,225.74609 150,150 0 0 0 150,300 150,150 0 0 0 300,150 150,150 0 0 0 228.25977,22.25391 Z"
       id="path3340"
       inkscape:connector-curvature="0" />
  </g>
  <g
     inkscape:groupmode="layer"
     id="layer5"
     inkscape:label="Gradient"
     style="opacity:0.25">
    <circle
       style="fill:url(#radialGradient4374);fill-opacity:1;stroke:none"
       id="path4366"
       cx="150"
       cy="150"
       r="150" />
  </g>
</svg>
