<svg width="96" height="32" xmlns:rdf="http://www.w3.org/1999/02/22-rdf-syntax-ns#" xmlns="http://www.w3.org/2000/svg" viewBox="0 0 96 32" version="1.1" xmlns:cc="http://creativecommons.org/ns#" xmlns:dc="http://purl.org/dc/elements/1.1/">
 <defs>
  <filter id="b" style="color-interpolation-filters:sRGB" height="1.168" width="1.168" y="-.084" x="-.084">
   <feGaussianBlur stdDeviation="5.2351792"/>
  </filter>
  <filter id="a" style="color-interpolation-filters:sRGB" height="1.12" width="1.12" y="-.06" x="-.06">
   <feGaussianBlur stdDeviation="1.9999999"/>
  </filter>
 </defs>
 <g fill-rule="evenodd" transform="matrix(.14545 0 0 .14545 -41.034 -65.93)">
  <path style="color-rendering:auto;color:#000000;isolation:auto;mix-blend-mode:normal;shape-rendering:auto;solid-color:#000000;image-rendering:auto" d="m392.12 453.58c13.903 86.348 23.117 95.975 109.69 109.69-84.694 10.032-95.27 19.664-109.69 109.69-7.8457-88.871-18.239-94.627-109.69-109.69 91.026-11.536 98.22-22.516 109.69-109.69z" stroke="#75e914" stroke-width="3.9171" fill="#a1f55c"/>
  <path style="color-rendering:auto;color:#000000;isolation:auto;mix-blend-mode:normal;shape-rendering:auto;solid-color:#000000;image-rendering:auto" d="m309.92 467.62c9.4795 58.873 15.762 65.437 74.788 74.788-57.747 6.8404-64.958 13.408-74.788 74.788-5.3494-60.594-12.436-64.519-74.788-74.788 62.064-7.8653 66.969-15.352 74.788-74.788z" transform="matrix(.97926 0 0 .97928 88.618 32.107)" filter="url(#b)" fill="#dafa3c"/>
  <path style="color-rendering:auto;color:#000000;isolation:auto;mix-blend-mode:normal;shape-rendering:auto;solid-color:#000000;image-rendering:auto" d="m394.44 520.95c5.0701 31.488 8.4301 34.999 40 40-30.886 3.6585-34.742 7.1709-40 40-2.8611-32.408-6.6512-34.507-40-40 33.194-4.2067 35.818-8.211 40-40z" transform="matrix(.97926 0 0 .97928 5.8509 13.953)" filter="url(#a)" fill="#d7fdb7"/>
  <path style="color-rendering:auto;color:#000000;isolation:auto;mix-blend-mode:normal;shape-rendering:auto;solid-color:#000000;image-rendering:auto" fill="#75e914" d="m442.09 478.95c3.38 20.992 5.62 23.332 26.667 26.667-20.59 2.439-23.161 4.7806-26.667 26.667-1.9074-21.605-4.4341-23.005-26.667-26.667 22.13-2.8045 23.879-5.474 26.667-26.667z"/>
  <path style="color-rendering:auto;color:#000000;isolation:auto;mix-blend-mode:normal;shape-rendering:auto;solid-color:#000000;image-rendering:auto" fill="#75e914" d="m330.77 588.92c2.7991 17.384 4.6541 19.322 22.083 22.083-17.051 2.0198-19.181 3.9589-22.083 22.083-1.5796-17.892-3.672-19.051-22.083-22.083 18.326-2.3224 19.775-4.5331 22.083-22.083z"/>
  <path style="color-rendering:auto;color:#000000;isolation:auto;mix-blend-mode:normal;shape-rendering:auto;solid-color:#000000;image-rendering:auto" d="m832.12 453.58c13.903 86.348 23.117 95.975 109.69 109.69-84.694 10.032-95.27 19.664-109.69 109.69-7.8457-88.871-18.239-94.627-109.69-109.69 91.026-11.536 98.22-22.516 109.69-109.69z" stroke="#75e914" stroke-width="3.9171" fill="#a1f55c"/>
  <path style="color-rendering:auto;color:#000000;isolation:auto;mix-blend-mode:normal;shape-rendering:auto;solid-color:#000000;image-rendering:auto" d="m309.92 467.62c9.4795 58.873 15.762 65.437 74.788 74.788-57.747 6.8404-64.958 13.408-74.788 74.788-5.3494-60.594-12.436-64.519-74.788-74.788 62.064-7.8653 66.969-15.352 74.788-74.788z" transform="matrix(.97926 0 0 .97928 528.62 32.107)" filter="url(#b)" fill="#dafa3c"/>
  <path style="color-rendering:auto;color:#000000;isolation:auto;mix-blend-mode:normal;shape-rendering:auto;solid-color:#000000;image-rendering:auto" d="m394.44 520.95c5.0701 31.488 8.4301 34.999 40 40-30.886 3.6585-34.742 7.1709-40 40-2.8611-32.408-6.6512-34.507-40-40 33.194-4.2067 35.818-8.211 40-40z" transform="matrix(.97926 0 0 .97928 445.85 13.953)" filter="url(#a)" fill="#d7fdb7"/>
  <path style="color-rendering:auto;color:#000000;isolation:auto;mix-blend-mode:normal;shape-rendering:auto;solid-color:#000000;image-rendering:auto" fill="#75e914" d="m764.52 474.75c2.8519 18.696 4.7419 20.78 22.5 23.75-17.373 2.1722-19.542 4.2577-22.5 23.75-1.6094-19.242-3.7413-20.489-22.5-23.75 18.672-2.4977 20.148-4.8752 22.5-23.75z"/>
  <path style="color-rendering:auto;color:#000000;isolation:auto;mix-blend-mode:normal;shape-rendering:auto;solid-color:#000000;image-rendering:auto" d="m612.12 453.58c13.903 86.348 23.117 95.975 109.69 109.69-84.694 10.032-95.27 19.664-109.69 109.69-7.8457-88.871-18.239-94.627-109.69-109.69 91.026-11.536 98.22-22.516 109.69-109.69z" stroke="#75e914" stroke-width="3.9171" fill="#a1f55c"/>
  <path style="color-rendering:auto;color:#000000;isolation:auto;mix-blend-mode:normal;shape-rendering:auto;solid-color:#000000;image-rendering:auto" d="m309.92 467.62c9.4795 58.873 15.762 65.437 74.788 74.788-57.747 6.8404-64.958 13.408-74.788 74.788-5.3494-60.594-12.436-64.519-74.788-74.788 62.064-7.8653 66.969-15.352 74.788-74.788z" transform="matrix(.97926 0 0 .97928 308.62 32.107)" filter="url(#b)" fill="#dafa3c"/>
  <path style="color-rendering:auto;color:#000000;isolation:auto;mix-blend-mode:normal;shape-rendering:auto;solid-color:#000000;image-rendering:auto" d="m394.44 520.95c5.0701 31.488 8.4301 34.999 40 40-30.886 3.6585-34.742 7.1709-40 40-2.8611-32.408-6.6512-34.507-40-40 33.194-4.2067 35.818-8.211 40-40z" transform="matrix(.97926 0 0 .97928 225.85 13.953)" filter="url(#a)" fill="#d7fdb7"/>
  <g fill="#75e914">
   <path style="color-rendering:auto;color:#000000;isolation:auto;mix-blend-mode:normal;shape-rendering:auto;solid-color:#000000;image-rendering:auto" d="m564.52 497.25c1.5844 9.84 2.6344 10.937 12.5 12.5-9.6518 1.1433-10.857 2.2409-12.5 12.5-0.8941-10.128-2.0785-10.784-12.5-12.5 10.373-1.3146 11.193-2.5659 12.5-12.5z"/>
   <path style="color-rendering:auto;color:#000000;isolation:auto;mix-blend-mode:normal;shape-rendering:auto;solid-color:#000000;image-rendering:auto" d="m444.59 588.95c3.38 20.992 5.62 23.332 26.667 26.667-20.59 2.439-23.161 4.7806-26.667 26.667-1.9074-21.605-4.4341-23.005-26.667-26.667 22.13-2.8045 23.879-5.474 26.667-26.667z"/>
   <path style="color-rendering:auto;color:#000000;isolation:auto;mix-blend-mode:normal;shape-rendering:auto;solid-color:#000000;image-rendering:auto" d="m683.76 578.95c5.4926 34.112 9.1326 37.915 43.333 43.333-33.459 3.9634-37.637 7.7685-43.333 43.333-3.0996-35.109-7.2055-37.383-43.333-43.333 35.961-4.5572 38.803-8.8952 43.333-43.333z"/>
   <path style="color-rendering:auto;color:#000000;isolation:auto;mix-blend-mode:normal;shape-rendering:auto;solid-color:#000000;image-rendering:auto" d="m689.18 455.62c4.3835 27.224 7.2885 30.259 34.583 34.583-26.703 3.1631-30.037 6.1998-34.583 34.583-2.4737-28.019-5.7505-29.835-34.583-34.583 28.699-3.637 30.968-7.099 34.583-34.583z"/>
  </g>
 </g>
</svg>
