<svg xmlns:rdf="http://www.w3.org/1999/02/22-rdf-syntax-ns#" xmlns="http://www.w3.org/2000/svg" height="50" width="100" version="1.1" xmlns:cc="http://creativecommons.org/ns#" xmlns:dc="http://purl.org/dc/elements/1.1/" viewBox="0 0 100 50.000001">
 <g transform="translate(0 -1002.4)">
  <g>
   <rect height="30.761" width="45.833" y="1021.6" x="2.2631" fill="#ffb916"/>
   <rect height="3.0761" width="45.833" y="1021.8" x="2.2631" fill="#000020"/>
   <rect height="8.2029" width="50" y="1013.7" x="-8.0059e-7" fill="#ffb916"/>
   <rect height="38.702" width="4.1667" y="1013.7" x="23.096" fill="#1591b4"/>
  </g>
  <path d="m24.48 1014c-0.74872-4.2655-6.6132-8.003-11.264-9.3323-1.5186-0.4011-7.3121-2.3883-7.5853 2.6179-0.15812 4.2198 11.457 6.3544 18.85 6.7144z" stroke="#1591b4" stroke-width="3.1005" fill="none"/>
  <path d="m24.939 1014.1c1.3258-4.1272 7.6485-7.0527 12.439-7.753 1.5596-0.196 7.5724-1.3966 7.1577 3.6002-0.42098 4.2023-12.223 4.7767-19.597 4.1528z" stroke="#1591b4" stroke-width="3.1005" fill="none"/>
  <g>
   <rect height="26.946" width="45.833" y="1025.4" x="52.263" fill="#ff8c16"/>
   <rect height="3.0761" width="45.833" y="1026.6" x="52.263" fill="#000020"/>
   <rect height="8.2029" width="50" y="1018.5" x="50" fill="#ff8c16"/>
   <rect height="33.902" width="4.1667" y="1018.5" x="73.096" fill="#2644c0"/>
  </g>
  <path d="m74.586 1018.8c-1.1685-3.5478-6.6378-6.0099-10.773-6.5672-1.3459-0.1539-6.5374-1.1309-6.1492 3.1759 0.38878 3.6213 10.568 4.0016 16.922 3.3913z" stroke="#2644c0" stroke-width="2.6741" fill="none"/>
  <path d="m75.594 1019.1c0.60853-3.7379 5.6901-7.0876 9.7377-8.3157 1.3218-0.3722 6.36-2.1914 6.6517 2.1793 0.1829 3.685-9.9376 5.7162-16.389 6.1364z" stroke="#2644c0" stroke-width="2.7086" fill="none"/>
 </g>
</svg>
