<svg width="55.909" height="55.992" version="1.1" viewBox="0 0 14.793 14.815" xmlns="http://www.w3.org/2000/svg" xmlns:xlink="http://www.w3.org/1999/xlink">
 <defs>
  <linearGradient id="a">
   <stop stop-color="#2644c0" offset="0"/>
   <stop stop-color="#2644c0" stop-opacity="0" offset="1"/>
  </linearGradient>
  <linearGradient id="d" x1="66.14" x2="69.654" y1="65.707" y2="68.58" gradientUnits="userSpaceOnUse" xlink:href="#a"/>
  <linearGradient id="c" x1="66.14" x2="69.654" y1="65.707" y2="68.58" gradientTransform="matrix(.59503 .80462 -.80371 .59379 8.4526e-7 6.0489e-6)" gradientUnits="userSpaceOnUse" xlink:href="#a"/>
  <filter id="e" x="-.026279" y="-.021969" width="1.0526" height="1.0439" color-interpolation-filters="sRGB">
   <feGaussianBlur stdDeviation="0.17473755"/>
  </filter>
  <linearGradient id="b" x1="45.309" x2="63.619" y1="62.063" y2="62.063" gradientTransform="translate(70.182 102.4)" gradientUnits="userSpaceOnUse">
   <stop stop-color="#2644c0" offset="0"/>
   <stop stop-color="#2644c0" stop-opacity="0" offset="1"/>
  </linearGradient>
 </defs>
 <g transform="translate(-125.04 -73.468)">
  <path transform="matrix(-.33305 .36311 -.36429 -.36185 172.73 83.879)" d="m57.25 65.945c-8.2093 7.2143-8.2093 7.2143-10.352-3.5024-2.1431-10.717-2.1431-10.717 8.2093-7.2143s10.352 3.5024 2.1431 10.717z" fill="url(#b)" filter="url(#e)" stroke="#000020" stroke-linecap="square" stroke-linejoin="bevel" stroke-width=".60994"/>
  <path transform="matrix(.59379 -.80462 .80371 .59502 0 0)" d="m20.068 157.48a6.9033 6.9001 0 0 1-9.0877 3.4011 6.9033 6.9001 0 0 1-3.5116-9.042 6.9033 6.9001 0 0 1 9.0033-3.6184 6.9033 6.9001 0 0 1 3.728 8.955" fill="url(#c)" opacity=".753" stroke="#000020" stroke-linecap="square" stroke-linejoin="bevel" stroke-width=".30667"/>
  <path d="m138.69 83.775a6.8961 6.9073 0 0 1-9.0783 3.4046 6.8961 6.9073 0 0 1-3.508-9.0515 6.8961 6.9073 0 0 1 8.9939-3.6222 6.8961 6.9073 0 0 1 3.7242 8.9644" fill="#2644c0" opacity=".753" stroke-width="0"/>
  <path d="m138.69 83.775a6.8961 6.9073 0 0 1-9.0783 3.4046 6.8961 6.9073 0 0 1-3.508-9.0515 6.8961 6.9073 0 0 1 8.9939-3.6222 6.8961 6.9073 0 0 1 3.7242 8.9644" fill="url(#d)" opacity=".753" stroke="#0a0720" stroke-linecap="square" stroke-linejoin="bevel" stroke-opacity=".49359"/>
 </g>
</svg>
