<?xml version="1.0" encoding="UTF-8" standalone="no"?>
<svg xmlns:rdf="http://www.w3.org/1999/02/22-rdf-syntax-ns#" xmlns="http://www.w3.org/2000/svg" version="1.1" enable-background="new" xmlns:cc="http://creativecommons.org/ns#" xmlns:xlink="http://www.w3.org/1999/xlink" viewBox="0 0 300 300" xmlns:dc="http://purl.org/dc/elements/1.1/">
 <defs>
  <radialGradient id="a" gradientUnits="userSpaceOnUse" cy="-337.37" cx="18.277" gradientTransform="matrix(-.038942 1.5026 -1.249 -.032369 -354.76 -.85453)" r="150">
   <stop stop-color="#fff" offset="0"/>
   <stop offset="1"/>
  </radialGradient>
 </defs>
 <g transform="translate(0 -752.36)">
  <ellipse rx="150" ry="0" transform="scale(-1,1)" cy="603.36" cx="-2883.8"/>
  <path d="m300 902.36a150 150 0 0 1 -150 150 150 150 0 0 1 -150 -150.04 150 150 0 0 1 150 -150 150 150 0 0 1 150 150z" fill="#35a9ca"/>
  <g fill-rule="evenodd">
   <path d="m244.14 785.74c-4.6588 9.3361-10.36 18.065-19.78 23.161-18.812 13.964-37.209 28.48-55.748 42.799l-3.0104 26.12c11.591 8.5455 21.713 19.64 34.29 26.122 21.866 0.76642 44.499 6.2612 65.745-1.6285 11.544-2.534 23.444-5.2472 33.967-10.751a150 150 0 0 0 -55.47 -105.82z" fill="#ffc53d"/>
   <path d="m1.2101 884.34a150 150 0 0 0 -1.2097 18.02 150 150 0 0 0 150 150.04 150 150 0 0 0 7.7812 -0.2764c-10.388-14.029-21.776-27.246-35.085-38.544-6.9294-10.277-5.5722-23.418-8.7613-34.926-0.91837-9.0664-6.142-16.788-12.998-22.478-13.28-14.3-25.038-30.32-40.14-42.71-19.863-9.7-39.659-19.54-59.59-29.1z" fill="#ffc53d"/>
   <path d="m245.82 796.52c-10.776 17.185-30.425 25.249-45.047 38.508-8.6735 6.7025-17.329 13.428-25.994 20.143-0.75005 6.5587-1.5261 13.129-2.26 19.68 10.449 7.4941 18.786 18.628 31.254 22.78 22.214 1.8721 45.476 4.9604 66.765-3.1493 7.3547-1.9788 15.79-3.2523 22.043-7.3152-3.6794-34.609-20.625-67.681-46.472-91.135l-0.28913 0.48896z" fill="#ff9f3d"/>
   <path d="m6.5821 899.58c-1.775 60.082 38.443 119.02 95.968 138.02 13.457 4.7355 27.835 7.5078 42.123 8.0342-8.8766-11.636-20.715-20.805-29.624-32.266-8.3608-15.796-2.1483-37.286-16.275-50.261-18.259-17.49-31.214-42-56.079-51.26-11.897-5.83-23.787-11.68-35.714-17.46l-0.40181 5.2023z" fill="#ff9f3d"/>
  </g>
 </g>
 <g opacity=".25">
  <path d="m228.26 22.254a150 150 0 0 1 20.74 75.746 150 150 0 0 1 -150 150 150 150 0 0 1 -78.26 -22.25 150 150 0 0 0 129.26 74.25 150 150 0 0 0 150 -150 150 150 0 0 0 -71.74 -127.75z" fill-rule="evenodd"/>
 </g>
 <g opacity=".25">
  <circle cx="150" cy="150" r="150" fill="url(#a)"/>
 </g>
</svg>
