<svg width="32" height="32" version="1.1" viewBox="0 0 8.4667 8.4667" xmlns="http://www.w3.org/2000/svg">
 <defs>
  <filter id="b" x="-.0204" y="-.0204" width="1.0408" height="1.0408" color-interpolation-filters="sRGB">
   <feGaussianBlur stdDeviation="0.050106859"/>
  </filter>
  <filter id="a" x="-.0492" y="-.0492" width="1.0984" height="1.0984" color-interpolation-filters="sRGB">
   <feGaussianBlur stdDeviation="0.17340766"/>
  </filter>
 </defs>
 <g transform="translate(0 -288.53)">
  <path d="m4.2324 288.54c0.09794 3.7986 0.30587 3.9861 4.2295 4.2294-3.873 0.10888-4.0854 0.22643-4.2295 4.2295-0.08489-3.9959-0.38091-4.1484-4.2295-4.2295 3.9098-0.14949 4.08-0.31966 4.2295-4.2294z" fill="#35a9ca" stroke="#444464" stroke-linecap="round" stroke-width=".15496"/>
  <path d="m4.2333 288.54c0.09794 3.7986 0.30587 3.9861 4.2295 4.2294-3.873 0.10888-4.0854 0.22643-4.2295 4.2295-0.08489-3.9959-0.38091-4.1484-4.2295-4.2295 3.9098-0.14949 4.08-0.31966 4.2295-4.2294z" fill="#35a9ca" filter="url(#a)"/>
  <path d="m4.2333 289.82c0.068253 2.6472 0.21316 2.7779 2.9475 2.9474-2.6991 0.0758-2.847 0.15778-2.9475 2.9475-0.059158-2.7847-0.26545-2.891-2.9475-2.9475 2.7247-0.10426 2.8433-0.22278 2.9475-2.9474z" fill="#80d3ea" filter="url(#b)"/>
  <path d="m4.2333 290.69c0.048139 1.867 0.15034 1.9592 2.0788 2.0788-1.9036 0.0535-2.008 0.11128-2.0788 2.0788-0.041724-1.964-0.18722-2.039-2.0788-2.0788 1.9217-0.0735 2.0054-0.15713 2.0788-2.0788z" fill="#b5e8f6"/>
  <g fill="#1591b4">
   <path d="m2.6758 291.6c0.00985 0.3821 0.030768 0.40096 0.42545 0.42545-0.38959 0.0109-0.41095 0.0228-0.42545 0.42544-0.00854-0.40195-0.038316-0.4173-0.42545-0.42544 0.39329-0.015 0.41041-0.0321 0.42545-0.42545z"/>
   <path d="m2.6658 293.53c0.00708 0.2745 0.022104 0.28805 0.30563 0.30564-0.27988 8e-3 -0.29522 0.0164-0.30563 0.30563-0.00613-0.28875-0.027526-0.29978-0.30563-0.30563 0.28253-0.0108 0.29483-0.0231 0.30563-0.30564z"/>
   <path d="m6.8792 293.95c0.016094 0.62422 0.050264 0.65504 0.69502 0.69503-0.63645 0.0179-0.67134 0.0372-0.69502 0.69502-0.01395-0.65663-0.062594-0.6817-0.69502-0.69502 0.64249-0.0246 0.67045-0.0525 0.69502-0.69503z"/>
   <path d="m7.1038 291.37c0.010661 0.41348 0.033295 0.4339 0.46039 0.46039-0.42159 0.0118-0.4447 0.0247-0.46039 0.46039-0.00924-0.43496-0.041463-0.45157-0.46039-0.46039 0.42559-0.0163 0.44412-0.0348 0.46039-0.46039z"/>
   <path d="m5.3915 291.66c0.00962 0.37314 0.030046 0.39156 0.41546 0.41547-0.38045 0.0107-0.40131 0.0223-0.41546 0.41546-0.00834-0.39251-0.037417-0.4075-0.41546-0.41546 0.38406-0.0147 0.40078-0.0314 0.41546-0.41547z"/>
   <path d="m4.8623 294.61c0.00777 0.3014 0.02427 0.31628 0.33559 0.33559-0.30731 9e-3 -0.32415 0.018-0.33559 0.33559-0.00674-0.31705-0.030223-0.32916-0.33559-0.33559 0.31022-0.0119 0.32373-0.0253 0.33559-0.33559z"/>
   <path d="m2.9154 290.48c0.00869 0.33726 0.027159 0.35392 0.37553 0.37553-0.34388 9e-3 -0.36273 0.0201-0.37553 0.37552-0.00754-0.35478-0.033821-0.36833-0.37552-0.37552 0.34714-0.0132 0.36225-0.0284 0.37552-0.37553z"/>
   <path d="m1.6474 290.94c0.014476 0.56145 0.045209 0.58917 0.62513 0.62514-0.57245 0.0161-0.60383 0.0335-0.62513 0.62513-0.012548-0.5906-0.0563-0.61315-0.62513-0.62513 0.57788-0.0221 0.60303-0.0472 0.62513-0.62514z"/>
  </g>
 </g>
</svg>
