<svg width="96" height="32" version="1.1" viewBox="0 0 96 32" xmlns="http://www.w3.org/2000/svg">
 <defs>
  <filter id="b" x="-.084" y="-.084" width="1.168" height="1.168" color-interpolation-filters="sRGB">
   <feGaussianBlur stdDeviation="5.2351792"/>
  </filter>
  <filter id="a" x="-.06" y="-.06" width="1.12" height="1.12" color-interpolation-filters="sRGB">
   <feGaussianBlur stdDeviation="1.9999999"/>
  </filter>
 </defs>
 <g transform="translate(-282.11 -641.27)">
  <g transform="matrix(.14545 0 0 .14545 241.08 575.34)" fill-rule="evenodd" shape-rendering="auto">
   <path d="m392.12 453.58c13.903 86.348 23.117 95.975 109.69 109.69-84.694 10.032-95.27 19.664-109.69 109.69-7.8457-88.871-18.239-94.627-109.69-109.69 91.026-11.536 98.22-22.516 109.69-109.69z" color="#000000" color-rendering="auto" fill="#a1f55c" image-rendering="auto" solid-color="#000000" stroke="#75e914" stroke-width="3.9171" style="isolation:auto;mix-blend-mode:normal"/>
   <path transform="matrix(.97926 0 0 .97928 88.618 32.107)" d="m309.92 467.62c9.4795 58.873 15.762 65.437 74.788 74.788-57.747 6.8404-64.958 13.408-74.788 74.788-5.3494-60.594-12.436-64.519-74.788-74.788 62.064-7.8653 66.969-15.352 74.788-74.788z" color="#000000" color-rendering="auto" fill="#dafa3c" filter="url(#b)" image-rendering="auto" solid-color="#000000" style="isolation:auto;mix-blend-mode:normal"/>
   <path transform="matrix(.97926 0 0 .97928 5.8509 13.953)" d="m394.44 520.95c5.0701 31.488 8.4301 34.999 40 40-30.886 3.6585-34.742 7.1709-40 40-2.8611-32.408-6.6512-34.507-40-40 33.194-4.2067 35.818-8.211 40-40z" color="#000000" color-rendering="auto" fill="#d7fdb7" filter="url(#a)" image-rendering="auto" solid-color="#000000" style="isolation:auto;mix-blend-mode:normal"/>
   <path d="m338.55 495.74c1.9013 11.808 3.1613 13.124 15 15-11.582 1.372-13.028 2.6891-15 15-1.0729-12.153-2.4942-12.94-15-15 12.448-1.5775 13.432-3.0791 15-15z" color="#000000" color-rendering="auto" fill="#dafa3c" image-rendering="auto" solid-color="#000000" style="isolation:auto;mix-blend-mode:normal"/>
   <g fill="#75e914">
    <path d="m454.59 489.78c1.5844 9.84 2.6344 10.937 12.5 12.5-9.6518 1.1433-10.857 2.2409-12.5 12.5-0.8941-10.128-2.0785-10.784-12.5-12.5 10.373-1.3146 11.193-2.5659 12.5-12.5z" color="#000000" color-rendering="auto" image-rendering="auto" solid-color="#000000" style="isolation:auto;mix-blend-mode:normal"/>
    <path d="m432.16 612.85c0.95065 5.904 1.5806 6.5622 7.5 7.5-5.7911 0.68598-6.5142 1.3445-7.5 7.5-0.53646-6.0765-1.2471-6.4701-7.5-7.5 6.224-0.78876 6.7159-1.5396 7.5-7.5z" color="#000000" color-rendering="auto" image-rendering="auto" solid-color="#000000" style="isolation:auto;mix-blend-mode:normal"/>
    <path d="m332.85 616.42c1.5844 9.84 2.6344 10.937 12.5 12.5-9.6518 1.1433-10.857 2.2409-12.5 12.5-0.8941-10.128-2.0785-10.784-12.5-12.5 10.373-1.3146 11.193-2.5659 12.5-12.5z" color="#000000" color-rendering="auto" image-rendering="auto" solid-color="#000000" style="isolation:auto;mix-blend-mode:normal"/>
   </g>
   <path d="m832.12 453.58c13.903 86.348 23.117 95.975 109.69 109.69-84.694 10.032-95.27 19.664-109.69 109.69-7.8457-88.871-18.239-94.627-109.69-109.69 91.026-11.536 98.22-22.516 109.69-109.69z" color="#000000" color-rendering="auto" fill="#a1f55c" image-rendering="auto" solid-color="#000000" stroke="#75e914" stroke-width="3.9171" style="isolation:auto;mix-blend-mode:normal"/>
   <path transform="matrix(.97926 0 0 .97928 528.62 32.107)" d="m309.92 467.62c9.4795 58.873 15.762 65.437 74.788 74.788-57.747 6.8404-64.958 13.408-74.788 74.788-5.3494-60.594-12.436-64.519-74.788-74.788 62.064-7.8653 66.969-15.352 74.788-74.788z" color="#000000" color-rendering="auto" fill="#dafa3c" filter="url(#b)" image-rendering="auto" solid-color="#000000" style="isolation:auto;mix-blend-mode:normal"/>
   <path transform="matrix(.97926 0 0 .97928 445.85 13.953)" d="m394.44 520.95c5.0701 31.488 8.4301 34.999 40 40-30.886 3.6585-34.742 7.1709-40 40-2.8611-32.408-6.6512-34.507-40-40 33.194-4.2067 35.818-8.211 40-40z" color="#000000" color-rendering="auto" fill="#d7fdb7" filter="url(#a)" image-rendering="auto" solid-color="#000000" style="isolation:auto;mix-blend-mode:normal"/>
   <path d="m891.06 604.82c1.9013 11.808 3.1613 13.124 15 15-11.582 1.372-13.028 2.6891-15 15-1.0729-12.153-2.4942-12.94-15-15 12.448-1.5775 13.432-3.0791 15-15z" color="#000000" color-rendering="auto" fill="#dafa3c" image-rendering="auto" solid-color="#000000" style="isolation:auto;mix-blend-mode:normal"/>
   <path d="m780.35 613.92c1.5844 9.84 2.6344 10.937 12.5 12.5-9.6518 1.1433-10.857 2.2409-12.5 12.5-0.8941-10.128-2.0785-10.784-12.5-12.5 10.373-1.3146 11.193-2.5659 12.5-12.5z" color="#000000" color-rendering="auto" fill="#75e914" image-rendering="auto" solid-color="#000000" style="isolation:auto;mix-blend-mode:normal"/>
   <path d="m784.74 505.4c0.95065 5.904 1.5806 6.5622 7.5 7.5-5.7911 0.68598-6.5142 1.3445-7.5 7.5-0.53646-6.0765-1.2471-6.4701-7.5-7.5 6.224-0.78876 6.7159-1.5396 7.5-7.5z" color="#000000" color-rendering="auto" fill="#75e914" image-rendering="auto" solid-color="#000000" style="isolation:auto;mix-blend-mode:normal"/>
   <path d="m890.23 487.32c1.9013 11.808 3.1613 13.124 15 15-11.582 1.372-13.028 2.6891-15 15-1.0729-12.153-2.4942-12.94-15-15 12.448-1.5775 13.432-3.0791 15-15z" color="#000000" color-rendering="auto" fill="#dafa3c" image-rendering="auto" solid-color="#000000" style="isolation:auto;mix-blend-mode:normal"/>
   <path d="m612.12 453.58c13.903 86.348 23.117 95.975 109.69 109.69-84.694 10.032-95.27 19.664-109.69 109.69-7.8457-88.871-18.239-94.627-109.69-109.69 91.026-11.536 98.22-22.516 109.69-109.69z" color="#000000" color-rendering="auto" fill="#a1f55c" image-rendering="auto" solid-color="#000000" stroke="#75e914" stroke-width="3.9171" style="isolation:auto;mix-blend-mode:normal"/>
   <path transform="matrix(.97926 0 0 .97928 308.62 32.107)" d="m309.92 467.62c9.4795 58.873 15.762 65.437 74.788 74.788-57.747 6.8404-64.958 13.408-74.788 74.788-5.3494-60.594-12.436-64.519-74.788-74.788 62.064-7.8653 66.969-15.352 74.788-74.788z" color="#000000" color-rendering="auto" fill="#dafa3c" filter="url(#b)" image-rendering="auto" solid-color="#000000" style="isolation:auto;mix-blend-mode:normal"/>
   <path transform="matrix(.97926 0 0 .97928 225.85 13.953)" d="m394.44 520.95c5.0701 31.488 8.4301 34.999 40 40-30.886 3.6585-34.742 7.1709-40 40-2.8611-32.408-6.6512-34.507-40-40 33.194-4.2067 35.818-8.211 40-40z" color="#000000" color-rendering="auto" fill="#d7fdb7" filter="url(#a)" image-rendering="auto" solid-color="#000000" style="isolation:auto;mix-blend-mode:normal"/>
   <path d="m556.06 604.82c1.9013 11.808 3.1613 13.124 15 15-11.582 1.372-13.028 2.6891-15 15-1.0729-12.153-2.4942-12.94-15-15 12.448-1.5775 13.432-3.0791 15-15z" color="#000000" color-rendering="auto" fill="#dafa3c" image-rendering="auto" solid-color="#000000" style="isolation:auto;mix-blend-mode:normal"/>
   <path d="m564.52 497.25c1.5844 9.84 2.6344 10.937 12.5 12.5-9.6518 1.1433-10.857 2.2409-12.5 12.5-0.8941-10.128-2.0785-10.784-12.5-12.5 10.373-1.3146 11.193-2.5659 12.5-12.5z" color="#000000" color-rendering="auto" fill="#75e914" image-rendering="auto" solid-color="#000000" style="isolation:auto;mix-blend-mode:normal"/>
   <path d="m675.57 513.73c0.95065 5.904 1.5806 6.5622 7.5 7.5-5.7911 0.68598-6.5142 1.3445-7.5 7.5-0.53646-6.0765-1.2471-6.4701-7.5-7.5 6.224-0.78876 6.7159-1.5396 7.5-7.5z" color="#000000" color-rendering="auto" fill="#75e914" image-rendering="auto" solid-color="#000000" style="isolation:auto;mix-blend-mode:normal"/>
   <path d="m671.9 606.49c1.9013 11.808 3.1613 13.124 15 15-11.582 1.372-13.028 2.6891-15 15-1.0729-12.153-2.4942-12.94-15-15 12.448-1.5775 13.432-3.0791 15-15z" color="#000000" color-rendering="auto" fill="#dafa3c" image-rendering="auto" solid-color="#000000" style="isolation:auto;mix-blend-mode:normal"/>
  </g>
 </g>
</svg>
