<svg version="1.1" width="96" height="32" viewBox="0 0 96 32" xmlns="http://www.w3.org/2000/svg">
 <defs>
  <filter id="b" x="-.084" y="-.084" width="1.168" height="1.168" color-interpolation-filters="sRGB">
   <feGaussianBlur stdDeviation="5.2351792"/>
  </filter>
  <filter id="a" x="-.06" y="-.06" width="1.12" height="1.12" color-interpolation-filters="sRGB">
   <feGaussianBlur stdDeviation="1.9999999"/>
  </filter>
 </defs>
 <g fill-rule="evenodd" shape-rendering="auto">
  <path d="m16.001 0.045285c2.0222 12.56 3.3625 13.96 15.955 15.955-12.319 1.4592-13.857 2.8602-15.955 15.955-1.1412-12.927-2.6529-13.764-15.955-15.955 13.24-1.678 14.286-3.275 15.955-15.955z" color="#000000" color-rendering="auto" fill="#1591b4" image-rendering="auto" solid-color="#000000" stroke="#80d3ea" stroke-width=".56976" style="isolation:auto;mix-blend-mode:normal"/>
  <path transform="matrix(.14244 0 0 .14244 -28.145 -61.26)" d="m309.92 467.62c9.4795 58.873 15.762 65.437 74.788 74.788-57.747 6.8404-64.958 13.408-74.788 74.788-5.3494-60.594-12.436-64.519-74.788-74.788 62.064-7.8653 66.969-15.352 74.788-74.788z" color="#000000" color-rendering="auto" fill="#80d3ea" filter="url(#b)" image-rendering="auto" solid-color="#000000" style="isolation:auto;mix-blend-mode:normal"/>
  <path transform="matrix(.14244 0 0 .14244 -40.183 -63.9)" d="m394.44 520.95c5.0701 31.488 8.4301 34.999 40 40-30.886 3.6585-34.742 7.1709-40 40-2.8611-32.408-6.6512-34.507-40-40 33.194-4.2067 35.818-8.211 40-40z" color="#000000" color-rendering="auto" fill="#b5e8f6" filter="url(#a)" image-rendering="auto" solid-color="#000000" style="isolation:auto;mix-blend-mode:normal"/>
  <path d="m23.269 3.7354c0.49163 3.0534 0.81745 3.3937 3.8788 3.8788-2.9949 0.35476-3.3689 0.69536-3.8788 3.8788-0.27744-3.1425-0.64496-3.3462-3.8788-3.8788 3.2189-0.40793 3.4733-0.79621 3.8788-3.8788z" color="#000000" color-rendering="auto" fill="#80d3ea" image-rendering="auto" solid-color="#000000" stroke-width=".14545" style="isolation:auto;mix-blend-mode:normal"/>
  <path d="m7.0774 19.731c0.40714 2.5286 0.67696 2.8105 3.2121 3.2121-2.4801 0.29379-2.79 0.57584-3.2121 3.2121-0.22976-2.6025-0.53411-2.771-3.2121-3.2121 2.6656-0.3378 2.8763-0.65936 3.2121-3.2121z" color="#000000" color-rendering="auto" fill="#80d3ea" image-rendering="auto" solid-color="#000000" stroke-width=".14545" style="isolation:auto;mix-blend-mode:normal"/>
  <path d="m80.001 0.045285c2.0222 12.56 3.3625 13.96 15.955 15.955-12.319 1.4592-13.857 2.8602-15.955 15.955-1.1412-12.927-2.6529-13.764-15.955-15.955 13.24-1.678 14.286-3.275 15.955-15.955z" color="#000000" color-rendering="auto" fill="#1591b4" image-rendering="auto" solid-color="#000000" stroke="#80d3ea" stroke-width=".56976" style="isolation:auto;mix-blend-mode:normal"/>
  <path transform="matrix(.14244 0 0 .14244 35.855 -61.26)" d="m309.92 467.62c9.4795 58.873 15.762 65.437 74.788 74.788-57.747 6.8404-64.958 13.408-74.788 74.788-5.3494-60.594-12.436-64.519-74.788-74.788 62.064-7.8653 66.969-15.352 74.788-74.788z" color="#000000" color-rendering="auto" fill="#80d3ea" filter="url(#b)" image-rendering="auto" solid-color="#000000" style="isolation:auto;mix-blend-mode:normal"/>
  <path transform="matrix(.14244 0 0 .14244 23.816 -63.9)" d="m394.44 520.95c5.0701 31.488 8.4301 34.999 40 40-30.886 3.6585-34.742 7.1709-40 40-2.8611-32.408-6.6512-34.507-40-40 33.194-4.2067 35.818-8.211 40-40z" color="#000000" color-rendering="auto" fill="#b5e8f6" filter="url(#a)" image-rendering="auto" solid-color="#000000" style="isolation:auto;mix-blend-mode:normal"/>
  <path d="m70.168 3.1245c0.41482 2.7194 0.68973 3.0225 3.2727 3.4545-2.527 0.31595-2.8425 0.6193-3.2727 3.4545-0.23409-2.7988-0.54419-2.9802-3.2727-3.4545 2.7159-0.3633 2.9306-0.70912 3.2727-3.4545z" color="#000000" color-rendering="auto" fill="#80d3ea" image-rendering="auto" solid-color="#000000" stroke-width=".14545" style="isolation:auto;mix-blend-mode:normal"/>
  <path d="m48.001 0.045285c2.0222 12.56 3.3625 13.96 15.955 15.955-12.319 1.4592-13.857 2.8602-15.955 15.955-1.1412-12.927-2.6529-13.764-15.955-15.955 13.24-1.678 14.286-3.275 15.955-15.955z" color="#000000" color-rendering="auto" fill="#1591b4" image-rendering="auto" solid-color="#000000" stroke="#80d3ea" stroke-width=".56976" style="isolation:auto;mix-blend-mode:normal"/>
  <path transform="matrix(.14244 0 0 .14244 3.8556 -61.26)" d="m309.92 467.62c9.4795 58.873 15.762 65.437 74.788 74.788-57.747 6.8404-64.958 13.408-74.788 74.788-5.3494-60.594-12.436-64.519-74.788-74.788 62.064-7.8653 66.969-15.352 74.788-74.788z" color="#000000" color-rendering="auto" fill="#80d3ea" filter="url(#b)" image-rendering="auto" solid-color="#000000" style="isolation:auto;mix-blend-mode:normal"/>
  <path transform="matrix(.14244 0 0 .14244 -8.1836 -63.9)" d="m394.44 520.95c5.0701 31.488 8.4301 34.999 40 40-30.886 3.6585-34.742 7.1709-40 40-2.8611-32.408-6.6512-34.507-40-40 33.194-4.2067 35.818-8.211 40-40z" color="#000000" color-rendering="auto" fill="#b5e8f6" filter="url(#a)" image-rendering="auto" solid-color="#000000" style="isolation:auto;mix-blend-mode:normal"/>
 </g>
 <g fill="#80d3ea" fill-rule="evenodd" shape-rendering="auto" stroke-width=".14545">
  <path d="m41.077 6.3973c0.23046 1.4313 0.38318 1.5908 1.8182 1.8182-1.4039 0.1663-1.5792 0.32595-1.8182 1.8182-0.13005-1.4732-0.30232-1.5686-1.8182-1.8182 1.5088-0.19121 1.6281-0.37322 1.8182-1.8182z" color="#000000" color-rendering="auto" image-rendering="auto" solid-color="#000000" style="isolation:auto;mix-blend-mode:normal"/>
  <path d="m23.633 19.735c0.49163 3.0534 0.81745 3.3937 3.8788 3.8788-2.9949 0.35476-3.3689 0.69536-3.8788 3.8788-0.27744-3.1425-0.64496-3.3462-3.8788-3.8788 3.2189-0.40792 3.4733-0.79621 3.8788-3.8788z" color="#000000" color-rendering="auto" image-rendering="auto" solid-color="#000000" style="isolation:auto;mix-blend-mode:normal"/>
  <path d="m58.421 18.281c0.79892 4.9617 1.3284 5.5149 6.303 6.303-4.8667 0.57649-5.4744 1.13-6.303 6.303-0.45085-5.1067-1.0481-5.4375-6.303-6.303 5.2307-0.66286 5.644-1.2938 6.303-6.303z" color="#000000" color-rendering="auto" image-rendering="auto" solid-color="#000000" style="isolation:auto;mix-blend-mode:normal"/>
  <path d="m59.21 0.34201c0.6376 3.9598 1.0601 4.4013 5.0302 5.0302-3.8841 0.46008-4.369 0.90178-5.0302 5.0302-0.35981-4.0755-0.83643-4.3396-5.0302-5.0302 4.1744-0.52902 4.5044-1.0326 5.0302-5.0302z" color="#000000" color-rendering="auto" image-rendering="auto" solid-color="#000000" style="isolation:auto;mix-blend-mode:normal"/>
 </g>
</svg>
