<svg width="57.35" height="100" version="1.1" viewBox="0 0 15.174 26.458" xmlns="http://www.w3.org/2000/svg">
 <g transform="translate(-.35057 -270.54)">
  <g transform="matrix(1.118 0 0 1.118 -.93659 -33.248)">
   <g transform="translate(-15.819 5.6786)" fill="#667ee1">
    <path d="m19.809 280.32 1.8409 3.8689c-2.803 0.26507-3.6422 2.4939-4.6801 4.5241 0.40589-2.8127-0.33891-5.6574 2.8393-8.393z"/>
    <path d="m27.578 280.32-1.8409 3.8689c2.803 0.26507 3.6422 2.4939 4.6801 4.5241-0.40589-2.8127 0.33891-5.6574-2.8393-8.393z"/>
   </g>
   <path d="m12.555 282.65c2e-6 6.0311-2.0185 10.92-4.5085 10.92-2.49 0-4.5085-4.8892-4.5085-10.92 5e-7 -6.0311 1.5688-9.017 4.5085-10.92 2.7525 1.404 4.5085 4.8892 4.5085 10.92z" fill="#8c9fed"/>
   <path d="m4.8302 290.29a4.5085 10.92 0 0 0 3.2185 3.2763 4.5085 10.92 0 0 0 3.2144-3.2763z" fill="#444464"/>
   <path d="m4.8302 289.63a4.5085 11.648 0 0 0 3.2185 3.4947 4.5085 11.648 0 0 0 3.2144-3.4947z" fill="#000020"/>
   <path d="m11.582 275.87a5.8485 5.0857 0 0 1-3.5353 1.0392 5.8485 5.0857 0 0 1-3.5288-1.0382 4.5085 10.92 0 0 0-0.9793 6.7779 4.5085 10.92 0 0 0 2.9767 10.26 1.5354 1.17 0 0 1-0.0037-0.0729 1.5354 1.17 0 0 1 1.5355-1.17 1.5354 1.17 0 0 1 1.5355 1.17 1.5354 1.17 0 0 1-0.00463 0.0698 4.5085 10.92 0 0 0 2.9777-10.257 4.5085 10.92 0 0 0-0.97375-6.7789z" fill="#2644c0"/>
   <ellipse cx="8.0467" cy="282.65" rx="2.2777" ry="2.6677" fill="#b5e8f6"/>
   <path d="m9.2621 280.76c-1.6576-1.5962-3.6333 0.5046-3.1888 2.7955 0.7271-1.8167 1.068-3.2303 3.1888-2.7955z" fill="#efefff"/>
   <g transform="translate(.028081 .62402)" fill="#8c9fed">
    <path d="m4.0873 286.38 1.8409 3.8689c-2.803 0.26507-3.6422 2.4939-4.6801 4.5241 0.40589-2.8127-0.33891-5.6574 2.8393-8.393z"/>
    <path d="m11.856 286.38-1.8409 3.8689c2.803 0.26507 3.6422 2.4939 4.6801 4.5241-0.40589-2.8127 0.33891-5.6574-2.8393-8.393z"/>
   </g>
   <g transform="translate(.062401 1.1856)" fill="#bcc8f8">
    <path d="m11.947 286.44c1.5547 0.87666 2.1711 3.6272 2.3401 5.741-0.68492-1.7848-1.619-4.1488-3.1825-4.1185 0 0 0.57873-0.91818 0.84242-1.6224z"/>
    <path d="m4.0218 286.44c-1.5547 0.87666-2.1711 3.6272-2.3401 5.741 0.68492-1.7848 1.619-4.1488 3.1825-4.1185 0 0-0.57873-0.91818-0.84242-1.6224z"/>
   </g>
   <path d="m8.0467 271.73c-1.2083 1.1255-2.6349 2.1709-3.2314 4.1314 0.3674 0.27035 0.73826 0.49572 1.388 0.67894-0.050618-1.9129 0.96581-3.4301 1.8434-4.8103z" fill="#bcc8f8"/>
  </g>
 </g>
</svg>
